<svg xmlns="http://www.w3.org/2000/svg" viewBox="0 0 32 32" role="img" aria-label="Bola de futebol">
  <circle cx="16" cy="16" r="16" fill="#1a6b38"/>
  <circle cx="16" cy="16" r="11" fill="#f5f5f0"/>
  <path fill="#1a1a1a" d="M16 7.2 19.1 9.5 18.4 13.2 14.6 13.2 13.9 9.5z"/>
  <path fill="#1a1a1a" d="M10.2 11.1 13.1 13.1 12.1 16.6 9.1 15.2 8.4 12z"/>
  <path fill="#1a1a1a" d="M9.4 18.2 12.3 16.8 14.2 19.8 12.4 22.8 9.5 21.4z"/>
  <path fill="#1a1a1a" d="M15.1 22.4 14.4 19.1 16 16.8 17.6 19.1 16.9 22.4z"/>
  <path fill="#1a1a1a" d="M19.8 22.8 18 19.8 19.9 16.8 22.8 18.2 22.1 21.4z"/>
  <path fill="#1a1a1a" d="M22.6 15.2 19.6 16.6 18.6 13.1 21.5 11.1 23.2 12z"/>
  <path fill="none" stroke="#1a1a1a" stroke-width="0.9" d="M16 7.2v9.6M13.9 9.5 9.4 18.2M19.1 9.5 22.6 15.2M18.4 13.2 19.9 16.8M13.9 13.2 12.3 16.8M9.1 15.2 12.4 22.8M22.8 18.2 19.8 22.8M14.4 19.1 16.9 22.4"/>
</svg>
